<?xml version="1.0" standalone="no"?>
<!DOCTYPE svg PUBLIC "-//W3C//DTD SVG 20010904//EN"
 "http://www.w3.org/TR/2001/REC-SVG-20010904/DTD/svg10.dtd">
<svg version="1.0" xmlns="http://www.w3.org/2000/svg"
 width="260.000000pt" height="260.000000pt" viewBox="0 0 260.000000 260.000000"
 preserveAspectRatio="xMidYMid meet">
<metadata>
Created by potrace 1.11, written by Peter Selinger 2001-2013
</metadata>
<g transform="translate(0.000000,260.000000) scale(0.100000,-0.100000)"
fill="#000000" stroke="none">
<path d="M626 2313 c-4 -10 -28 -41 -54 -69 -51 -54 -108 -117 -217 -239 -96
-107 -154 -171 -208 -230 l-46 -50 -1 -427 0 -428 52 -57 c29 -32 57 -63 62
-69 6 -6 40 -44 76 -84 36 -40 72 -81 80 -89 9 -9 49 -54 90 -100 41 -47 100
-111 130 -143 l55 -58 151 148 c83 81 306 298 494 482 189 184 388 379 444
433 56 54 128 125 161 158 l60 58 -1 -641 -1 -641 56 60 c31 33 69 75 86 94
75 86 309 345 319 354 6 6 28 29 49 53 l37 42 0 428 -1 427 -47 51 c-26 28
-78 86 -117 129 -66 74 -156 175 -198 220 -10 11 -55 61 -100 111 l-81 90
-210 -205 c-298 -293 -368 -361 -414 -405 l-41 -39 -327 326 c-179 180 -327
327 -329 327 -2 0 -6 -8 -9 -17z m152 -896 l122 -122 -125 -125 c-93 -93 -125
-120 -126 -105 -4 76 -3 475 1 475 3 0 60 -55 128 -123z"/>
</g>
</svg>
